<svg width="46" height="46" viewBox="0 0 46 46" fill="none" xmlns="http://www.w3.org/2000/svg">
<path d="M16.1 25.2999H29.9V39.0999H16.1V25.2999Z" fill="url(#paint0_linear_112_409)"/>
<path d="M25.3069 7.78321C24.6737 7.21427 23.8524 6.89954 23.0011 6.89954C22.1499 6.89954 21.3286 7.21427 20.6954 7.78321L8.04539 19.1498C7.68502 19.4733 7.39679 19.869 7.19944 20.3113C7.0021 20.7535 6.90007 21.2323 6.89999 21.7166V35.6408C6.89999 36.5558 7.26348 37.4333 7.91048 38.0803C8.55748 38.7273 9.435 39.0908 10.35 39.0908H13.8V39.1H18.4V26.4408C18.4 26.1358 18.5212 25.8433 18.7368 25.6276C18.9525 25.412 19.245 25.2908 19.55 25.2908H26.45C26.755 25.2908 27.0475 25.412 27.2632 25.6276C27.4788 25.8433 27.6 26.1358 27.6 26.4408V39.1H34.5V39.0908H35.65C36.565 39.0908 37.4425 38.7273 38.0895 38.0803C38.7365 37.4333 39.1 36.5558 39.1 35.6408V21.7166C39.1002 21.2325 38.9985 20.7538 38.8016 20.3116C38.6047 19.8693 38.3168 19.4735 37.9569 19.1498L25.3069 7.78321Z" fill="url(#paint1_linear_112_409)"/>
<path fill-rule="evenodd" clip-rule="evenodd" d="M24.4812 5.14967C24.0694 4.79451 23.5438 4.59912 23 4.59912C22.4562 4.59912 21.9306 4.79451 21.5188 5.14967L5.34981 19.1866C5.13092 19.3739 4.95194 19.6033 4.82352 19.8611C4.69509 20.119 4.61984 20.4001 4.60225 20.6876C4.58465 20.9751 4.62507 21.2633 4.72109 21.5349C4.81712 21.8065 4.96679 22.056 5.16121 22.2686C5.55957 22.702 6.11102 22.9634 6.69875 22.9973C7.28648 23.0312 7.86433 22.835 8.30991 22.4503L23 9.69677L37.6901 22.4503C38.136 22.8347 38.714 23.0305 39.3017 22.9962C39.8895 22.9618 40.4408 22.7001 40.8388 22.2663C41.0329 22.0537 41.1822 21.8044 41.2781 21.533C41.3739 21.2616 41.4142 20.9737 41.3966 20.6865C41.379 20.3992 41.3039 20.1184 41.1756 19.8608C41.0474 19.6031 40.8687 19.3738 40.6502 19.1866L24.4812 5.14967Z" fill="url(#paint2_linear_112_409)"/>
<path fill-rule="evenodd" clip-rule="evenodd" d="M21.5188 5.14965C21.9304 4.79511 22.4556 4.6001 22.9989 4.6001C23.5421 4.6001 24.0673 4.79511 24.4789 5.14965L40.6502 19.1866C41.5702 19.987 41.6553 21.3647 40.8388 22.2686C40.4405 22.702 39.889 22.9634 39.3013 22.9973C38.7135 23.0312 38.1357 22.835 37.6901 22.4503L23 9.69675L8.30992 22.4503C7.86405 22.8347 7.28603 23.0305 6.69829 22.9962C6.11055 22.9618 5.55927 22.7 5.16122 22.2663C4.96716 22.0537 4.81779 21.8044 4.72198 21.533C4.62616 21.2616 4.58585 20.9737 4.60344 20.6865C4.62104 20.3992 4.69617 20.1184 4.82438 19.8608C4.9526 19.6031 5.13128 19.3738 5.34982 19.1866L21.5188 5.14965Z" fill="url(#paint3_linear_112_409)"/>
<defs>
<linearGradient id="paint0_linear_112_409" x1="23" y1="25.2999" x2="15.2559" y2="42.5154" gradientUnits="userSpaceOnUse">
<stop stop-color="#944600"/>
<stop offset="1" stop-color="#CD8E02"/>
</linearGradient>
<linearGradient id="paint1_linear_112_409" x1="9.97279" y1="5.32451" x2="41.5702" y2="31.0063" gradientUnits="userSpaceOnUse">
<stop stop-color="#FFD394"/>
<stop offset="1" stop-color="#FFB357"/>
</linearGradient>
<linearGradient id="paint2_linear_112_409" x1="17.0545" y1="0.229966" x2="25.1367" y2="22.0892" gradientUnits="userSpaceOnUse">
<stop stop-color="#FF921F"/>
<stop offset="1" stop-color="#EB4824"/>
</linearGradient>
<linearGradient id="paint3_linear_112_409" x1="17.0545" y1="0.229952" x2="25.1367" y2="22.0892" gradientUnits="userSpaceOnUse">
<stop stop-color="#FF921F"/>
<stop offset="1" stop-color="#EB4824"/>
</linearGradient>
</defs>
</svg>
