<svg width="46" height="46" viewBox="0 0 46 46" fill="none" xmlns="http://www.w3.org/2000/svg">
<path d="M10.7812 25.875C9.44688 25.875 8.16716 26.4051 7.22362 27.3486C6.28008 28.2922 5.75 29.5719 5.75 30.9062V31.625C5.75 35.0649 7.93931 37.9744 11.0472 39.9524C14.1723 41.9419 18.4029 43.125 23 43.125C27.5971 43.125 31.8263 41.9419 34.9528 39.9539C38.0607 37.9759 40.25 35.0664 40.25 31.625V30.9062C40.25 29.5719 39.7199 28.2922 38.7764 27.3486C37.8328 26.4051 36.5531 25.875 35.2188 25.875H10.7812Z" fill="#212121"/>
<path d="M10.7812 25.875C9.44688 25.875 8.16716 26.4051 7.22362 27.3486C6.28008 28.2922 5.75 29.5719 5.75 30.9062V31.625C5.75 35.0649 7.93931 37.9744 11.0472 39.9524C14.1723 41.9419 18.4029 43.125 23 43.125C27.5971 43.125 31.8263 41.9419 34.9528 39.9539C38.0607 37.9759 40.25 35.0664 40.25 31.625V30.9062C40.25 29.5719 39.7199 28.2922 38.7764 27.3486C37.8328 26.4051 36.5531 25.875 35.2188 25.875H10.7812Z" fill="url(#paint0_linear_112_420)"/>
<path d="M10.7812 25.875C9.44688 25.875 8.16716 26.4051 7.22362 27.3486C6.28008 28.2922 5.75 29.5719 5.75 30.9062V31.625C5.75 35.0649 7.93931 37.9744 11.0472 39.9524C14.1723 41.9419 18.4029 43.125 23 43.125C27.5971 43.125 31.8263 41.9419 34.9528 39.9539C38.0607 37.9759 40.25 35.0664 40.25 31.625V30.9062C40.25 29.5719 39.7199 28.2922 38.7764 27.3486C37.8328 26.4051 36.5531 25.875 35.2188 25.875H10.7812Z" fill="url(#paint1_linear_112_420)"/>
<path d="M23 23C25.6687 23 28.2282 21.9398 30.1153 20.0528C32.0023 18.1657 33.0625 15.6062 33.0625 12.9375C33.0625 10.2688 32.0023 7.70932 30.1153 5.82224C28.2282 3.93515 25.6687 2.875 23 2.875C20.3313 2.875 17.7718 3.93515 15.8847 5.82224C13.9977 7.70932 12.9375 10.2688 12.9375 12.9375C12.9375 15.6062 13.9977 18.1657 15.8847 20.0528C17.7718 21.9398 20.3313 23 23 23Z" fill="#242424"/>
<path d="M23 23C25.6687 23 28.2282 21.9398 30.1153 20.0528C32.0023 18.1657 33.0625 15.6062 33.0625 12.9375C33.0625 10.2688 32.0023 7.70932 30.1153 5.82224C28.2282 3.93515 25.6687 2.875 23 2.875C20.3313 2.875 17.7718 3.93515 15.8847 5.82224C13.9977 7.70932 12.9375 10.2688 12.9375 12.9375C12.9375 15.6062 13.9977 18.1657 15.8847 20.0528C17.7718 21.9398 20.3313 23 23 23Z" fill="url(#paint2_linear_112_420)"/>
<defs>
<linearGradient id="paint0_linear_112_420" x1="13.9538" y1="28.1678" x2="19.527" y2="45.9669" gradientUnits="userSpaceOnUse">
<stop offset="0.403846" stop-color="#D67BFF"/>
<stop offset="1" stop-color="#FFB6D9"/>
</linearGradient>
<linearGradient id="paint1_linear_112_420" x1="23" y1="23.8208" x2="30.8042" y2="52.9819" gradientUnits="userSpaceOnUse">
<stop stop-color="#885EDB" stop-opacity="0"/>
<stop offset="1" stop-color="#FFB6D9"/>
</linearGradient>
<linearGradient id="paint2_linear_112_420" x1="17.7229" y1="5.55019" x2="27.9795" y2="21.9276" gradientUnits="userSpaceOnUse">
<stop offset="0.403846" stop-color="#D67BFF"/>
<stop offset="1" stop-color="#FFB6D9"/>
</linearGradient>
</defs>
</svg>
