<svg width="46" height="46" viewBox="0 0 46 46" fill="none" xmlns="http://www.w3.org/2000/svg">
<path d="M10.35 34.5H36.8C36.8 34.5 35.65 35.65 35.65 37.95C35.65 40.25 36.8 40.25 36.8 40.25H12.65C12.04 40.25 11.455 40.0077 11.0237 39.5763C10.5923 39.145 10.35 38.56 10.35 37.95V34.5Z" fill="url(#paint0_linear_112_415)"/>
<path d="M9.20001 9.19998V36.8C9.20001 38.02 9.68465 39.19 10.5473 40.0527C11.41 40.9153 12.58 41.4 13.8 41.4H35.65C35.955 41.4 36.2475 41.2788 36.4632 41.0632C36.6789 40.8475 36.8 40.555 36.8 40.25C36.8 39.945 36.6789 39.6525 36.4632 39.4368C36.2475 39.2211 35.955 39.1 35.65 39.1H13.8C13.19 39.1 12.605 38.8577 12.1737 38.4263C11.7423 37.995 11.5 37.41 11.5 36.8H34.5C35.11 36.8 35.695 36.5577 36.1264 36.1263C36.5577 35.695 36.8 35.11 36.8 34.5V9.19998C36.8 7.97998 36.3154 6.80995 35.4527 5.94728C34.59 5.08462 33.42 4.59998 32.2 4.59998H13.8C12.58 4.59998 11.41 5.08462 10.5473 5.94728C9.68465 6.80995 9.20001 7.97998 9.20001 9.19998Z" fill="url(#paint1_linear_112_415)"/>
<path d="M13.8 11.5C13.8 10.89 14.0423 10.3049 14.4737 9.87361C14.905 9.44227 15.49 9.19995 16.1 9.19995H29.9C30.51 9.19995 31.095 9.44227 31.5264 9.87361C31.9577 10.3049 32.2 10.89 32.2 11.5V13.8C32.2 14.4099 31.9577 14.995 31.5264 15.4263C31.095 15.8576 30.51 16.1 29.9 16.1H16.1C15.49 16.1 14.905 15.8576 14.4737 15.4263C14.0423 14.995 13.8 14.4099 13.8 13.8V11.5Z" fill="url(#paint2_linear_112_415)"/>
<defs>
<linearGradient id="paint0_linear_112_415" x1="23" y1="39.1" x2="23" y2="34.5" gradientUnits="userSpaceOnUse">
<stop stop-color="#9DEAFF"/>
<stop offset="0.716" stop-color="#58AAFE"/>
</linearGradient>
<linearGradient id="paint1_linear_112_415" x1="18.722" y1="11.4862" x2="24.7457" y2="51.0094" gradientUnits="userSpaceOnUse">
<stop stop-color="#20AC9D"/>
<stop offset="1" stop-color="#2052CB"/>
</linearGradient>
<linearGradient id="paint2_linear_112_415" x1="20.1457" y1="8.01545" x2="27.8668" y2="20.8265" gradientUnits="userSpaceOnUse">
<stop stop-color="#9FF0F9"/>
<stop offset="1" stop-color="#6CE0FF"/>
</linearGradient>
</defs>
</svg>
